<svg width="663" height="786" viewBox="0 0 663 786" fill="none" xmlns="http://www.w3.org/2000/svg">
<g clip-path="url(#clip0_21_18)">
<path d="M619.6 1C615.33 6.27308 610.813 11.6926 605.964 16.7958C570.589 54.0235 535.146 91.1864 499.734 128.379C498.939 129.214 498.256 130.155 497.073 131.485C490.266 138.487 483.855 145.003 477.557 151.626C461.63 168.372 445.754 185.167 429.554 202.073C413.724 218.508 398.197 234.81 382.333 251.468C404.632 264.055 426.29 276.28 448.214 288.683C467.754 300.013 487.027 311.165 506.638 322.513C505.538 323.495 504.768 324.333 503.859 324.972C491.47 333.683 479.008 342.291 466.677 351.085C458.458 356.947 450.42 363.064 441.934 369.013C439.888 370.023 438.162 371.022 436.534 372.161C390.787 404.17 345.04 436.179 299.324 468.233C292.687 472.886 286.211 477.769 279.348 482.7C277.631 483.726 276.178 484.531 274.825 485.478C246.354 505.395 217.876 525.304 189.436 545.266C163.857 563.219 138.321 581.235 112.765 599.223C104.158 605.18 95.5515 611.137 86.3926 616.981C85.6868 616.736 85.533 616.605 85.3793 616.475C94.4721 606.563 103.565 596.652 113.16 586.327C147.887 549.294 182.133 512.695 216.328 476.049C233.244 457.921 250.066 439.707 267.225 421.321C286.783 400.512 306.048 379.913 325.579 359.029C320.485 356.196 316.156 353.749 311.791 351.368C296.771 343.176 281.738 335.007 266.457 326.634C244.893 314.51 223.58 302.583 201.842 290.417C207.293 286.567 212.441 282.923 217.598 279.291C234.047 267.705 250.499 256.124 267.299 244.419C294.461 225.724 321.303 207.191 348.078 188.562C363.916 177.542 379.647 166.369 395.737 155.137C399.204 152.89 402.402 150.831 405.511 148.643C420.395 138.167 435.255 127.657 450.123 117.159C460.585 110.077 471.119 103.098 481.496 95.8939C526.057 64.9573 570.572 33.9553 615.096 2.96461C615.629 2.59318 616.048 2.05714 616.26 1.29897C617.067 1 618.133 1 619.6 1Z" fill="#FEBF01"/>
<path d="M429.857 201.942C445.754 185.167 461.63 168.372 477.557 151.626C483.855 145.003 490.266 138.487 496.891 131.79C552.94 154.243 588.921 194.182 601.762 253.344C610.816 295.062 609.747 336.788 595.955 377.523C581.038 421.582 551.516 452.894 509.906 473.062C479.192 487.949 446.328 495.214 412.793 499.975C366.762 506.512 320.422 505.822 274.114 505.838C271.809 505.839 269.505 505.838 266.92 505.838C266.92 580.553 266.92 654.944 266.92 729.79C281.603 733.484 296.372 737.239 311.163 740.909C323.6 743.995 323.611 743.952 322.553 756.785C322.542 756.929 322.399 757.063 322.131 757.52C233.954 757.52 145.591 757.52 56.7957 757.52C56.7957 753.564 56.5212 749.735 56.9598 745.991C57.0948 744.839 59.0264 743.331 60.3928 742.975C76.152 738.873 91.9616 734.964 107.755 730.994C109.353 730.592 110.934 730.124 112.821 729.604C112.821 686.407 112.821 643.268 112.793 599.676C138.321 581.235 163.857 563.219 189.436 545.266C217.876 525.304 246.354 505.395 274.825 485.478C276.178 484.531 277.631 483.726 279.851 482.68C292.317 482.504 303.968 482.483 315.619 482.503C336.007 482.539 355.791 479.31 373.874 469.567C413.972 447.964 433.789 412.304 442.3 369.067C450.42 363.064 458.458 356.947 466.677 351.085C479.008 342.291 491.47 333.683 503.859 324.972C504.768 324.333 505.538 323.495 506.638 322.513C487.027 311.165 467.754 300.013 448.28 288.187C446.72 257.986 442.3 229.109 429.857 201.942Z" fill="white"/>
<path d="M266.931 421.532C250.066 439.707 233.244 457.921 216.328 476.049C182.133 512.695 147.887 549.294 113.357 586.068C112.983 584.229 112.853 582.235 112.853 580.241C112.843 433.075 112.844 285.91 112.844 138.744C112.844 136.768 112.844 134.792 112.844 132.524C95.6737 128.17 78.8221 123.78 61.897 119.696C58.0652 118.771 56.0304 117.467 56.7176 113.149C57.1296 110.562 56.7933 107.855 56.7933 104.863C58.2883 104.724 59.5462 104.503 60.8038 104.505C156.301 104.659 251.801 104.518 347.296 105.166C381.633 105.399 415.748 109.322 449.73 117.048C435.254 127.657 420.395 138.167 405.511 148.643C402.402 150.831 399.204 152.89 395.46 154.883C377.709 140.464 358.261 130.675 335.881 129.264C313.142 127.831 290.282 128.305 267.475 127.974C267.234 127.97 266.987 128.377 266.659 128.666C266.659 166.757 266.658 204.918 266.671 243.079C266.671 243.567 266.853 244.054 266.951 244.541C250.499 256.124 234.047 267.705 217.598 279.291C212.441 282.923 207.293 286.567 201.842 290.417C223.58 302.583 244.893 314.51 266.423 327.118C266.639 348.912 266.605 370.026 266.648 391.14C266.668 401.271 266.832 411.401 266.931 421.532Z" fill="white"/>
<path d="M85.0414 618.04C84.574 618.288 84.1066 618.535 83.6392 618.783C83.7517 618.461 83.8642 618.139 84.3605 617.803C84.7444 617.789 85.0414 618.04 85.0414 618.04Z" fill="#FEBF01"/>
<path d="M86.0625 617.073C86.0486 617.528 85.813 617.776 85.3094 618.032C85.0415 618.04 84.7444 617.789 84.5948 617.66C84.5669 617.23 84.7523 616.975 85.1903 616.621C85.533 616.606 85.6868 616.736 86.0625 617.073Z" fill="#FEBF01"/>
</g>
<defs>
<clipPath id="clip0_21_18">
<rect width="663" height="786" fill="white"/>
</clipPath>
</defs>
</svg>
